<svg aria-hidden="true" style="position: absolute; width: 0; height: 0; overflow: hidden;" version="1.1" xmlns="http://www.w3.org/2000/svg" xmlns:xlink="http://www.w3.org/1999/xlink">
<defs>
<symbol id="brush-icon" viewBox="0 0 32 32">
<path d="M3.724 16.963l11.313 11.313c0.124 0.124 0.271 0.222 0.432 0.289s0.335 0.102 0.51 0.102 0.348-0.035 0.51-0.102c0.162-0.067 0.309-0.165 0.432-0.289l8.763-8.76c0.372-0.371 0.667-0.812 0.868-1.298s0.304-1.006 0.302-1.532c0-1.069-0.417-2.075-1.172-2.828l-0.943-0.943 2.829-2.829c0.372-0.367 0.667-0.804 0.867-1.287s0.301-1.001 0.297-1.524c0.006-0.586-0.117-1.166-0.363-1.698s-0.605-1.003-1.055-1.379c-0.705-0.59-1.596-0.912-2.515-0.908-1.112 0-2.205 0.455-3 1.249l-2.719 2.719-0.943-0.941c-1.511-1.511-4.143-1.512-5.656-0.001l-8.761 8.761c-0.124 0.124-0.222 0.271-0.289 0.432s-0.102 0.335-0.102 0.51c0 0.175 0.035 0.348 0.102 0.51s0.165 0.309 0.289 0.432zM13.427 9.143l0.944-0.941c0.254-0.243 0.591-0.379 0.943-0.379s0.689 0.136 0.943 0.379l1.885 1.884c0.124 0.124 0.271 0.222 0.432 0.289s0.335 0.102 0.51 0.102 0.348-0.035 0.51-0.102c0.162-0.067 0.309-0.165 0.432-0.289l3.661-3.66c0.295-0.297 0.696-0.466 1.115-0.469 0.289-0.005 0.57 0.094 0.793 0.277 0.153 0.127 0.274 0.286 0.356 0.467s0.121 0.378 0.116 0.576c0.002 0.172-0.031 0.342-0.097 0.5s-0.163 0.302-0.286 0.422l-3.772 3.772c-0.124 0.124-0.222 0.271-0.289 0.432s-0.102 0.335-0.102 0.51c0 0.175 0.035 0.348 0.102 0.51s0.165 0.309 0.289 0.432l1.885 1.887c0.252 0.251 0.391 0.584 0.391 0.941s-0.139 0.692-0.391 0.944l-0.943 0.943-9.429-9.428z"></path>
</symbol>
<symbol id="download-icon" viewBox="0 0 32 32">
<path d="M9.293 10.707c-0.188-0.188-0.293-0.442-0.293-0.707s0.105-0.52 0.293-0.707c0.188-0.188 0.442-0.293 0.707-0.293s0.52 0.105 0.707 0.293l4.293 4.294v-10.586c0-0.265 0.105-0.52 0.293-0.707s0.442-0.293 0.707-0.293c0.265 0 0.52 0.105 0.707 0.293s0.293 0.442 0.293 0.707v10.586l4.292-4.294c0.188-0.188 0.442-0.293 0.708-0.293s0.52 0.105 0.708 0.293c0.188 0.188 0.293 0.442 0.293 0.707s-0.105 0.52-0.293 0.707l-6 6c-0.093 0.093-0.203 0.167-0.325 0.217s-0.252 0.076-0.383 0.076-0.261-0.026-0.383-0.076c-0.121-0.050-0.232-0.124-0.325-0.217l-6-6zM30 17v8c0 0.53-0.211 1.039-0.586 1.414s-0.884 0.586-1.414 0.586h-24c-0.53 0-1.039-0.211-1.414-0.586s-0.586-0.884-0.586-1.414v-8c0-0.53 0.211-1.039 0.586-1.414s0.884-0.586 1.414-0.586h6.55c0.066 0 0.131 0.013 0.191 0.038s0.116 0.062 0.162 0.108l2.971 2.979c0.279 0.28 0.61 0.502 0.975 0.653s0.756 0.229 1.15 0.229 0.786-0.078 1.15-0.229c0.365-0.151 0.696-0.373 0.975-0.653l2.975-2.975c0.092-0.094 0.218-0.148 0.35-0.15h6.55c0.53 0 1.039 0.211 1.414 0.586s0.586 0.884 0.586 1.414zM25 21c0-0.297-0.088-0.587-0.253-0.833s-0.399-0.439-0.673-0.552c-0.274-0.113-0.576-0.143-0.867-0.085s-0.558 0.201-0.768 0.41c-0.21 0.21-0.353 0.477-0.41 0.768s-0.028 0.593 0.085 0.867c0.113 0.274 0.306 0.508 0.552 0.673s0.537 0.253 0.833 0.253c0.398 0 0.779-0.158 1.061-0.439s0.439-0.663 0.439-1.061z"></path>
</symbol>
<symbol id="eraser-icon" viewBox="0 0 32 32">
<path d="M16.64 4l-6.333 6.333-6.307 6.453c-0.497 0.5-0.775 1.176-0.775 1.88s0.279 1.38 0.775 1.88l5.733 5.733c0.248 0.246 0.584 0.385 0.933 0.387h16v-2.667h-9.333l9.627-9.627c0.248-0.248 0.445-0.542 0.579-0.866s0.203-0.671 0.203-1.021c0-0.35-0.069-0.697-0.203-1.021s-0.331-0.618-0.579-0.865l-6.547-6.6c-0.248-0.248-0.542-0.445-0.866-0.579s-0.671-0.203-1.021-0.203c-0.35 0-0.697 0.069-1.021 0.203s-0.618 0.331-0.866 0.579zM11.213 24l-5.333-5.333 7.32-7.453 6.6 6.6-6.080 6.080-0.093 0.107h-2.413z"></path>
</symbol>
<symbol id="paint-bucket-icon" viewBox="0 0 32 32">
<path d="M25.333 15.333c0 0-2.667 2.893-2.667 4.667 0 0.707 0.281 1.386 0.781 1.886s1.178 0.781 1.886 0.781c0.707 0 1.386-0.281 1.886-0.781s0.781-1.178 0.781-1.886c0-1.773-2.667-4.667-2.667-4.667zM6.947 13.333l6.387-6.387 6.387 6.387zM22.080 11.92l-11.92-11.92-1.88 1.88 3.173 3.173-6.867 6.867c-0.787 0.747-0.787 2.040 0 2.827l7.333 7.333c0.387 0.387 0.907 0.587 1.413 0.587s1.027-0.2 1.413-0.587l7.333-7.333c0.787-0.787 0.787-2.080 0-2.827z"></path>
</symbol>
<symbol id="reset-icon" viewBox="0 0 32 32">
<path d="M4 12v-8h2.667v4.467c1.111-1.378 2.472-2.467 4.084-3.267s3.361-1.2 5.249-1.2c2.622 0 4.961 0.744 7.017 2.233s3.495 3.411 4.316 5.767h-2.9c-0.756-1.6-1.878-2.889-3.367-3.867s-3.178-1.467-5.067-1.467c-1.267 0-2.461 0.233-3.584 0.7s-2.106 1.122-2.949 1.967h2.533v2.667h-8zM8 24h16l-5-6.667-4 5.333-3-4-4 5.333zM6.667 29.333c-0.733 0-1.361-0.261-1.884-0.784s-0.784-1.15-0.783-1.883v-10.667h2.667v10.667h18.667v-10.667h2.667v10.667c0 0.733-0.261 1.361-0.784 1.884s-1.15 0.784-1.883 0.783h-18.667z"></path>
</symbol>
<symbol id="trash-icon" viewBox="0 0 32 32">
<path d="M8 9.333h-1.333v17.333c0 0.707 0.281 1.386 0.781 1.886s1.178 0.781 1.886 0.781h13.333c0.707 0 1.386-0.281 1.886-0.781s0.781-1.178 0.781-1.886v-17.333h-17.333zM13.333 25.333h-2.667v-12h2.667v12zM21.333 25.333h-2.667v-12h2.667v12zM22.157 5.333l-2.157-2.667h-8l-2.157 2.667h-5.843v2.667h24v-2.667h-5.843z"></path>
</symbol>
<symbol id="upload-icon" viewBox="0 0 32 32">
<path d="M9.293 9.708c-0.093-0.093-0.167-0.203-0.217-0.325s-0.076-0.252-0.076-0.383c0-0.131 0.026-0.262 0.076-0.383s0.124-0.232 0.217-0.325l6-6c0.093-0.093 0.203-0.167 0.325-0.217s0.252-0.076 0.383-0.076 0.262 0.026 0.383 0.076c0.121 0.050 0.232 0.124 0.325 0.217l6 6c0.188 0.188 0.293 0.442 0.293 0.707s-0.105 0.52-0.293 0.707c-0.188 0.188-0.442 0.293-0.708 0.293s-0.52-0.105-0.708-0.293l-4.292-4.294v10.586c0 0.265-0.105 0.52-0.293 0.707s-0.442 0.293-0.707 0.293c-0.265 0-0.52-0.105-0.707-0.293s-0.293-0.442-0.293-0.707v-10.586l-4.293 4.294c-0.093 0.093-0.203 0.167-0.325 0.217s-0.252 0.076-0.383 0.076c-0.131 0-0.262-0.026-0.383-0.076s-0.232-0.124-0.325-0.217zM30 17v8c0 0.53-0.211 1.039-0.586 1.414s-0.884 0.586-1.414 0.586h-24c-0.53 0-1.039-0.211-1.414-0.586s-0.586-0.884-0.586-1.414v-8c0-0.53 0.211-1.039 0.586-1.414s0.884-0.586 1.414-0.586h8.5c0.133 0 0.26 0.053 0.354 0.146s0.146 0.221 0.146 0.354v0.433c0 1.681 1.375 3.099 3.058 3.067 0.786-0.015 1.534-0.338 2.084-0.899s0.858-1.315 0.858-2.101v-0.5c0-0.133 0.053-0.26 0.146-0.354s0.221-0.146 0.354-0.146h8.5c0.53 0 1.039 0.211 1.414 0.586s0.586 0.884 0.586 1.414zM25 21c0-0.297-0.088-0.587-0.253-0.833s-0.399-0.439-0.673-0.552c-0.274-0.113-0.576-0.143-0.867-0.085s-0.558 0.201-0.768 0.41c-0.21 0.21-0.353 0.477-0.41 0.768s-0.028 0.593 0.085 0.867 0.306 0.508 0.552 0.673c0.247 0.165 0.537 0.253 0.833 0.253 0.398 0 0.779-0.158 1.061-0.439s0.439-0.663 0.439-1.061z"></path>
</symbol>
</defs>
</svg>