<?xml version="1.0" encoding="UTF-8"?>
<!DOCTYPE svg PUBLIC "-//W3C//DTD SVG 1.1//EN" "http://www.w3.org/Graphics/SVG/1.1/DTD/svg11.dtd">
<svg xmlns="http://www.w3.org/2000/svg" version="1.1" width="512px" height="512px" style="shape-rendering:geometricPrecision; text-rendering:geometricPrecision; image-rendering:optimizeQuality; fill-rule:evenodd; clip-rule:evenodd" xmlns:xlink="http://www.w3.org/1999/xlink">
<g><path style="opacity:0.996" fill="#f96daf" d="M 430.5,-0.5 C 430.833,-0.5 431.167,-0.5 431.5,-0.5C 459.038,28.2109 480.872,60.8776 497,97.5C 505.08,116.812 507.747,136.812 505,157.5C 500.979,175.562 491.479,189.895 476.5,200.5C 454.833,200.5 433.167,200.5 411.5,200.5C 411.5,200.167 411.5,199.833 411.5,199.5C 415.226,199.823 418.893,199.489 422.5,198.5C 401.603,166.842 397.769,133.175 411,97.5C 419.49,76.3649 426.157,54.6982 431,32.5C 431.788,21.4537 431.622,10.4537 430.5,-0.5 Z"/></g>
<g><path style="opacity:1" fill="#dc1f5a" d="M 429.5,-0.5 C 429.833,-0.5 430.167,-0.5 430.5,-0.5C 431.622,10.4537 431.788,21.4537 431,32.5C 426.157,54.6982 419.49,76.3649 411,97.5C 397.769,133.175 401.603,166.842 422.5,198.5C 418.893,199.489 415.226,199.823 411.5,199.5C 402.651,199.174 393.984,199.507 385.5,200.5C 365.144,190.154 353.977,173.487 352,150.5C 350.205,128.342 355.872,108.342 369,90.5C 378.303,80.1961 387.97,70.1961 398,60.5C 405.725,52.0429 412.725,43.0429 419,33.5C 425.824,23.1955 429.324,11.8622 429.5,-0.5 Z"/></g>
<g><path style="opacity:0.997" fill="#e2e7e7" d="M 386.5,212.5 C 388.446,236.474 390.113,260.474 391.5,284.5C 367.628,288.891 356.794,303.224 359,327.5C 362.322,340.822 370.489,349.655 383.5,354C 387.751,355.195 392.085,355.695 396.5,355.5C 399.231,389.133 401.564,422.8 403.5,456.5C 335.451,504.509 261.118,517.343 180.5,495C 109.423,472.203 57.923,427.037 26,359.5C 1.84878,302.937 -2.15122,244.937 14,185.5C 40.2678,101.566 95.1011,45.7326 178.5,18C 218.536,7.08201 258.869,5.74867 299.5,14C 317.499,23.5009 324.666,38.3342 321,58.5C 318.837,66.656 314.337,73.156 307.5,78C 288.514,87.7379 272.348,100.905 259,117.5C 248.68,131.125 244.014,146.458 245,163.5C 248.662,182.321 258.829,196.488 275.5,206C 298.741,217.985 323.408,222.652 349.5,220C 362.179,218.999 374.513,216.499 386.5,212.5 Z"/></g>
<g><path style="opacity:1" fill="#fecf61" d="M 124.5,103.5 C 151.152,101.024 168.652,112.358 177,137.5C 179.777,155.171 174.611,170.004 161.5,182C 135.076,198.016 112.909,193.516 95,168.5C 84.9574,145.84 89.4574,126.674 108.5,111C 113.615,107.807 118.948,105.307 124.5,103.5 Z"/></g>
<g><path style="opacity:0.996" fill="#5d414d" d="M 411.5,199.5 C 411.5,199.833 411.5,200.167 411.5,200.5C 403.167,200.5 394.833,200.5 386.5,200.5C 386.5,202.833 386.5,205.167 386.5,207.5C 385.532,205.393 385.198,203.059 385.5,200.5C 393.984,199.507 402.651,199.174 411.5,199.5 Z"/></g>
<g><path style="opacity:1" fill="#24303f" d="M 411.5,200.5 C 412.768,231.86 414.435,263.193 416.5,294.5C 408.5,294.5 400.5,294.5 392.5,294.5C 391.521,291.375 391.187,288.042 391.5,284.5C 390.113,260.474 388.446,236.474 386.5,212.5C 386.5,210.833 386.5,209.167 386.5,207.5C 386.5,205.167 386.5,202.833 386.5,200.5C 394.833,200.5 403.167,200.5 411.5,200.5 Z"/></g>
<g><path style="opacity:1" fill="#3d4a5b" d="M 411.5,200.5 C 433.167,200.5 454.833,200.5 476.5,200.5C 476.5,202.833 476.5,205.167 476.5,207.5C 472.803,234.896 470.47,262.562 469.5,290.5C 468.566,291.568 468.232,292.901 468.5,294.5C 451.167,294.5 433.833,294.5 416.5,294.5C 414.435,263.193 412.768,231.86 411.5,200.5 Z"/></g>
<g><path style="opacity:0.988" fill="#e2e7e6" d="M 476.5,207.5 C 493.606,220.039 502.606,237.039 503.5,258.5C 502.32,307.696 488.32,352.696 461.5,393.5C 463.568,360.815 465.902,328.149 468.5,295.5C 469.451,294.081 469.784,292.415 469.5,290.5C 470.47,262.562 472.803,234.896 476.5,207.5 Z"/></g>
<g><path style="opacity:1" fill="#f96eb0" d="M 88.5,227.5 C 114.218,225.418 131.385,236.418 140,260.5C 143.436,279.192 137.936,294.692 123.5,307C 100.621,320.812 80.1207,317.979 62,298.5C 51.4533,281.898 50.7867,264.898 60,247.5C 67.2439,237.474 76.7439,230.808 88.5,227.5 Z"/></g>
<g><path style="opacity:1" fill="#786e59" d="M 469.5,290.5 C 469.784,292.415 469.451,294.081 468.5,295.5C 451.167,295.5 433.833,295.5 416.5,295.5C 408.5,295.5 400.5,295.5 392.5,295.5C 392.5,295.167 392.5,294.833 392.5,294.5C 400.5,294.5 408.5,294.5 416.5,294.5C 433.833,294.5 451.167,294.5 468.5,294.5C 468.232,292.901 468.566,291.568 469.5,290.5 Z"/></g>
<g><path style="opacity:1" fill="#ee882f" d="M 392.5,295.5 C 400.5,295.5 408.5,295.5 416.5,295.5C 419.667,363.18 423.167,430.847 427,498.5C 429.721,504.945 434.555,508.611 441.5,509.5C 440.5,510.167 439.5,510.833 438.5,511.5C 432.833,511.5 427.167,511.5 421.5,511.5C 415.121,509.965 410.288,506.298 407,500.5C 405.237,485.887 404.07,471.22 403.5,456.5C 401.564,422.8 399.231,389.133 396.5,355.5C 394.769,335.534 393.436,315.534 392.5,295.5 Z"/></g>
<g><path style="opacity:0.996" fill="#fece61" d="M 416.5,295.5 C 433.833,295.5 451.167,295.5 468.5,295.5C 465.902,328.149 463.568,360.815 461.5,393.5C 458.947,428.853 456.114,464.186 453,499.5C 450.845,504.825 447.011,508.159 441.5,509.5C 434.555,508.611 429.721,504.945 427,498.5C 423.167,430.847 419.667,363.18 416.5,295.5 Z"/></g>
<g><path style="opacity:1" fill="#48bd8f" d="M 160.5,335.5 C 188.938,332.803 206.771,345.136 214,372.5C 215.536,400.296 202.703,417.13 175.5,423C 149.575,423.736 133.408,411.569 127,386.5C 125.155,360.836 136.322,343.836 160.5,335.5 Z"/></g>
<g><path style="opacity:1" fill="#40bfe1" d="M 288.5,365.5 C 314.865,364.705 331.365,377.038 338,402.5C 339.893,428.589 328.393,445.423 303.5,453C 276.887,456.111 259.387,444.944 251,419.5C 248.098,390.599 260.598,372.599 288.5,365.5 Z"/></g>
</svg>
